<svg width="24" height="25" viewBox="0 0 24 25" fill="none" xmlns="http://www.w3.org/2000/svg">
<rect width="6" height="6" rx="1" transform="matrix(1 0 0 -1 14 10.0939)" stroke="#222222" stroke-linecap="round"/>
<path d="M10 14.0939H14C14.9428 14.0939 15.4142 14.0939 15.7071 14.3868C16 14.6797 16 15.1511 16 16.0939V18.0939C16 19.0367 16 19.5081 15.7071 19.801C15.4142 20.0939 14.9428 20.0939 14 20.0939H10V14.0939Z" stroke="#222222" stroke-linecap="round"/>
<path d="M10 10.0939C10 9.15106 10 8.67966 9.70711 8.38677C9.41421 8.09387 8.94281 8.09387 8 8.09387H6C5.05719 8.09387 4.58579 8.09387 4.29289 8.38677C4 8.67966 4 9.15106 4 10.0939V14.0939H10V10.0939Z" stroke="#222222" stroke-linecap="round"/>
<path d="M10 20.0939H6C5.05719 20.0939 4.58579 20.0939 4.29289 19.801C4 19.5081 4 19.0367 4 18.0939V14.0939H10V20.0939Z" stroke="#222222" stroke-linecap="round"/>
</svg>
